<svg xmlns="http://www.w3.org/2000/svg" width="340" height="200" viewBox="0 0 340 200"><style>text{font-family:'Segoe UI', Ubuntu, 'Helvetica Neue', sans-serif}</style><rect x="0.5" y="0.5" width="339" height="199" rx="4.5" fill="#1a1b27"/><text x="24" y="38" font-size="18" font-weight="600" fill="#70a5fd">Commits (UTC +3)</text><text x="38" y="59" font-size="10" fill="#38bdae" text-anchor="end">16</text><path d="M44 56 H316" stroke="#2a2c3d"/><text x="38" y="163" font-size="10" fill="#38bdae" text-anchor="end">0</text><path d="M44 160 H316" stroke="#2a2c3d"/><rect x="45.0" y="62.5" width="9.3" height="97.5" fill="#bf91f3"/><rect x="56.3" y="101.5" width="9.3" height="58.5" fill="#bf91f3"/><rect x="67.7" y="140.5" width="9.3" height="19.5" fill="#bf91f3"/><rect x="79.0" y="153.5" width="9.3" height="6.5" fill="#bf91f3"/><rect x="90.3" y="160.0" width="9.3" height="0.0" fill="#bf91f3"/><rect x="101.7" y="160.0" width="9.3" height="0.0" fill="#bf91f3"/><rect x="113.0" y="160.0" width="9.3" height="0.0" fill="#bf91f3"/><rect x="124.3" y="160.0" width="9.3" height="0.0" fill="#bf91f3"/><rect x="135.7" y="160.0" width="9.3" height="0.0" fill="#bf91f3"/><rect x="147.0" y="160.0" width="9.3" height="0.0" fill="#bf91f3"/><rect x="158.3" y="160.0" width="9.3" height="0.0" fill="#bf91f3"/><rect x="169.7" y="147.0" width="9.3" height="13.0" fill="#bf91f3"/><rect x="181.0" y="134.0" width="9.3" height="26.0" fill="#bf91f3"/><rect x="192.3" y="121.0" width="9.3" height="39.0" fill="#bf91f3"/><rect x="203.7" y="127.5" width="9.3" height="32.5" fill="#bf91f3"/><rect x="215.0" y="153.5" width="9.3" height="6.5" fill="#bf91f3"/><rect x="226.3" y="153.5" width="9.3" height="6.5" fill="#bf91f3"/><rect x="237.7" y="153.5" width="9.3" height="6.5" fill="#bf91f3"/><rect x="249.0" y="153.5" width="9.3" height="6.5" fill="#bf91f3"/><rect x="260.3" y="153.5" width="9.3" height="6.5" fill="#bf91f3"/><rect x="271.7" y="147.0" width="9.3" height="13.0" fill="#bf91f3"/><rect x="283.0" y="108.0" width="9.3" height="52.0" fill="#bf91f3"/><rect x="294.3" y="69.0" width="9.3" height="91.0" fill="#bf91f3"/><rect x="305.7" y="56.0" width="9.3" height="104.0" fill="#bf91f3"/><text x="49.7" y="174" font-size="10" fill="#38bdae" text-anchor="middle">0</text><text x="117.7" y="174" font-size="10" fill="#38bdae" text-anchor="middle">6</text><text x="185.7" y="174" font-size="10" fill="#38bdae" text-anchor="middle">12</text><text x="253.7" y="174" font-size="10" fill="#38bdae" text-anchor="middle">18</text><text x="310.3" y="174" font-size="10" fill="#38bdae" text-anchor="middle">23</text><text x="316" y="190" font-size="10" fill="#38bdae" text-anchor="end">per day hour</text></svg>