<svg xmlns="http://www.w3.org/2000/svg" width="485" height="118" viewBox="0 0 485 118"><style>text{font-family:'Segoe UI', Ubuntu, 'Helvetica Neue', sans-serif}</style><g transform="translate(0 0)"><rect x="0.5" y="0.5" width="109" height="117" rx="4.5" fill="#1a1b27"/><text x="55.0" y="18" font-size="10" font-weight="700" fill="#ff6b9d" text-anchor="middle">MultiLanguage</text><path d="M30 58 q-10 -4 -12 -16 M80 58 q10 -4 12 -16" fill="none" stroke="#38bdae" stroke-width="1.5" opacity="0.7"/><path d="M40 30 h30 v12 a15 15 0 0 1 -30 0 z" fill="#e7c057"/><path d="M40 34 h-6 a6 6 0 0 0 6 10 M70 34 h6 a6 6 0 0 1 -6 10" fill="none" stroke="#e7c057" stroke-width="2"/><rect x="51" y="57" width="8" height="8" fill="#e7c057"/><rect x="44" y="64" width="22" height="5" rx="1" fill="#e7c057"/><text x="55.0" y="47" font-size="13" font-weight="700" fill="#1a1b27" text-anchor="middle">A</text><text x="55.0" y="88" font-size="10" font-weight="600" fill="#e6edf3" text-anchor="middle">Polyglot</text><text x="55.0" y="104" font-size="9" fill="#8b949e" text-anchor="middle">9 languages</text></g><g transform="translate(125 0)"><rect x="0.5" y="0.5" width="109" height="117" rx="4.5" fill="#1a1b27"/><text x="55.0" y="18" font-size="10" font-weight="700" fill="#ff6b9d" text-anchor="middle">Commits</text><path d="M30 58 q-10 -4 -12 -16 M80 58 q10 -4 12 -16" fill="none" stroke="#38bdae" stroke-width="1.5" opacity="0.7"/><path d="M40 30 h30 v12 a15 15 0 0 1 -30 0 z" fill="#e7c057"/><path d="M40 34 h-6 a6 6 0 0 0 6 10 M70 34 h6 a6 6 0 0 1 -6 10" fill="none" stroke="#e7c057" stroke-width="2"/><rect x="51" y="57" width="8" height="8" fill="#e7c057"/><rect x="44" y="64" width="22" height="5" rx="1" fill="#e7c057"/><text x="55.0" y="47" font-size="13" font-weight="700" fill="#1a1b27" text-anchor="middle">C</text><text x="55.0" y="88" font-size="10" font-weight="600" fill="#e6edf3" text-anchor="middle">Committer</text><text x="55.0" y="104" font-size="9" fill="#8b949e" text-anchor="middle">90 commits</text></g><g transform="translate(250 0)"><rect x="0.5" y="0.5" width="109" height="117" rx="4.5" fill="#1a1b27"/><text x="55.0" y="18" font-size="10" font-weight="700" fill="#ff6b9d" text-anchor="middle">Repositories</text><path d="M30 58 q-10 -4 -12 -16 M80 58 q10 -4 12 -16" fill="none" stroke="#38bdae" stroke-width="1.5" opacity="0.7"/><path d="M40 30 h30 v12 a15 15 0 0 1 -30 0 z" fill="#e7c057"/><path d="M40 34 h-6 a6 6 0 0 0 6 10 M70 34 h6 a6 6 0 0 1 -6 10" fill="none" stroke="#e7c057" stroke-width="2"/><rect x="51" y="57" width="8" height="8" fill="#e7c057"/><rect x="44" y="64" width="22" height="5" rx="1" fill="#e7c057"/><text x="55.0" y="47" font-size="13" font-weight="700" fill="#1a1b27" text-anchor="middle">A</text><text x="55.0" y="88" font-size="10" font-weight="600" fill="#e6edf3" text-anchor="middle">Repo Builder</text><text x="55.0" y="104" font-size="9" fill="#8b949e" text-anchor="middle">41 repos</text></g><g transform="translate(375 0)"><rect x="0.5" y="0.5" width="109" height="117" rx="4.5" fill="#1a1b27"/><text x="55.0" y="18" font-size="10" font-weight="700" fill="#ff6b9d" text-anchor="middle">Experience</text><path d="M30 58 q-10 -4 -12 -16 M80 58 q10 -4 12 -16" fill="none" stroke="#38bdae" stroke-width="1.5" opacity="0.7"/><path d="M40 30 h30 v12 a15 15 0 0 1 -30 0 z" fill="#e7c057"/><path d="M40 34 h-6 a6 6 0 0 0 6 10 M70 34 h6 a6 6 0 0 1 -6 10" fill="none" stroke="#e7c057" stroke-width="2"/><rect x="51" y="57" width="8" height="8" fill="#e7c057"/><rect x="44" y="64" width="22" height="5" rx="1" fill="#e7c057"/><text x="55.0" y="47" font-size="13" font-weight="700" fill="#1a1b27" text-anchor="middle">C</text><text x="55.0" y="88" font-size="10" font-weight="600" fill="#e6edf3" text-anchor="middle">Regular</text><text x="55.0" y="104" font-size="9" fill="#8b949e" text-anchor="middle">2 years</text></g></svg>